<?xml version="1.0" encoding="UTF-8"?>
<svg xmlns="http://www.w3.org/2000/svg" viewBox="0 0 256 256" width="1024" height="1024">
  <defs>
    <linearGradient id="g" x1="0" x2="1" y1="0" y2="1">
      <stop offset="0%" stop-color="#4F46E5"/>
      <stop offset="50%" stop-color="#06B6D4"/>
      <stop offset="100%" stop-color="#06D6A0"/>
    </linearGradient>
    <filter id="s" x="-20%" y="-20%" width="140%" height="140%">
      <feDropShadow dx="0" dy="6" stdDeviation="12" flood-opacity="0.18"/>
    </filter>
  </defs>

  <!-- background rounded square -->
  <rect x="16" y="16" width="224" height="224" rx="32" fill="#0F172A" />

  <!-- colored document shape -->
  <g transform="translate(40,36)">
    <rect x="0" y="0" width="176" height="184" rx="12" fill="url(#g)" filter="url(#s)" />
    <path d="M124 0v44a12 12 0 0 0 12 12h40" fill="#FFFFFF" opacity="0.08" />
    <!-- small white lines to suggest text -->
    <rect x="24" y="32" width="112" height="10" rx="5" fill="#fff" opacity="0.9" />
    <rect x="24" y="56" width="128" height="10" rx="5" fill="#fff" opacity="0.75" />
    <rect x="24" y="80" width="96" height="10" rx="5" fill="#fff" opacity="0.6" />
  </g>

  <!-- stylized D letter -->
  <g transform="translate(68,92)">
    <path d="M0 0h48c24 0 48 24 48 48s-24 48-48 48H0z" fill="#fff" opacity="0.08" />
    <text x="10" y="62" font-family="Inter, Roboto, sans-serif" font-size="72" font-weight="700" fill="#fff">D</text>
  </g>
</svg>
